<svg width="128" height="39" viewBox="0 0 128 39" fill="currentColor" xmlns="http://www.w3.org/2000/svg">
<path d="M74.7121 10.4652L79.9319 10.4652V16.1659C79.9319 17.9136 80.414 19.2035 81.3993 20.0357C82.3636 20.8472 83.7052 21.2633 85.4032 21.2633C85.8854 21.2633 86.3465 21.2217 86.7658 21.1592C87.1851 21.0968 87.6043 21.0136 87.9817 20.9304V17.8304C87.6572 17.8661 87.3637 17.8865 87.1013 17.9048L86.9754 17.9136C86.682 17.9344 86.4305 17.9344 86.1999 17.9344C85.3195 17.9344 84.6905 17.7887 84.2712 17.4767C83.852 17.1646 83.6423 16.6236 83.6423 15.833V10.4652H87.5414V7.34436H83.6423V3.91144H79.9319V7.34436H77.7727V7.32355H74.754V5.43025C74.754 4.63964 74.9637 4.09869 75.362 3.78661C75.7602 3.49533 76.3682 3.32889 77.2067 3.32889C77.5211 3.32889 77.8985 3.34969 78.3387 3.41211V0.312083C78.0872 0.208056 77.7727 0.145639 77.4373 0.0832222C77.0809 0.0208056 76.7036 0 76.2843 0C74.6702 0 73.3914 0.416111 72.4271 1.24833C71.4628 2.10136 70.9807 3.3705 70.9807 5.11817V7.34436H69.0521V10.4652H70.9807V20.9304H74.7121V10.4652Z" />
<path d="M54.9021 0.332884H58.6335V20.9304H54.9021V0.332884Z" />
<path fill-rule="evenodd" clip-rule="evenodd" d="M17.546 20.9304H13.5421L12.5149 18.5586H5.03112L4.00393 20.9304H0L8.17557 2.47587H9.39142L17.546 20.9304ZM6.33082 15.5209H11.1733L8.78349 9.40411L6.33082 15.5209Z" />
<path d="M13.7936 27.8586C13.8356 28.3996 13.7936 28.9197 13.6679 29.3982C13.6561 29.4685 13.6376 29.5322 13.62 29.593C13.6064 29.6402 13.5932 29.6857 13.584 29.7311C13.584 29.7415 13.5788 29.7571 13.5735 29.7727C13.5683 29.7883 13.5631 29.8039 13.5631 29.8144L13.5002 30.0016L12.2843 33.4761C12.2424 33.5802 12.0747 33.5802 12.0537 33.4761L11.6554 32.3526L11.5716 32.103C11.4458 31.7285 10.9008 31.7493 10.7959 32.1238L10.5863 32.9144L8.93023 38.9064C8.88831 39.0312 8.72061 39.0312 8.67868 38.9064L7.0226 32.9144L6.81297 32.1238C6.70816 31.7493 6.16312 31.7285 6.03734 32.103L5.95349 32.3526L5.55519 33.4761C5.51327 33.5802 5.34556 33.5802 5.3246 33.4761L4.10875 29.9808C4.08778 29.9392 4.06682 29.8768 4.06682 29.8352L4.00393 29.6479L3.94104 29.3982C3.85719 29.0237 3.81527 28.6492 3.81527 28.2539C3.81527 25.4036 6.22601 23.115 9.13986 23.2814C11.5716 23.4479 13.605 25.4244 13.7936 27.8586Z" />
<path fill-rule="evenodd" clip-rule="evenodd" d="M30.4592 7.57322C29.6417 7.21952 28.7612 7.03227 27.7969 7.03227C26.8326 7.03227 25.9731 7.19872 25.2394 7.55241C24.4848 7.90611 23.8768 8.38463 23.3947 9.02961V7.34436H19.9568V25.9029H23.6882V19.6612C24.6734 20.7431 26.036 21.2841 27.776 21.2841C28.7403 21.2841 29.6207 21.0968 30.4383 20.7431C31.2349 20.3894 31.9476 19.8901 32.5346 19.2451C33.1215 18.6002 33.5827 17.8512 33.9181 16.9773C34.2535 16.1035 34.4212 15.1464 34.4212 14.127C34.4212 13.1075 34.2535 12.1504 33.9181 11.2974C33.6037 10.4236 33.1425 9.67458 32.5555 9.05041C31.9895 8.42624 31.2768 7.92691 30.4592 7.57322ZM25.8474 10.6108C26.2457 10.4652 26.6859 10.382 27.1261 10.382C27.6083 10.382 28.0694 10.4652 28.4677 10.6524C28.887 10.8189 29.2643 11.0685 29.5788 11.4014C29.8932 11.7135 30.1448 12.1296 30.3334 12.5874C30.5221 13.0659 30.606 13.586 30.606 14.1478C30.606 14.7303 30.5221 15.2505 30.3334 15.7082C30.1657 16.1659 29.8932 16.5612 29.5788 16.8733C29.2643 17.2062 28.887 17.4559 28.4677 17.6223C28.0275 17.8095 27.5873 17.8928 27.1051 17.8928C26.6649 17.8928 26.2457 17.8095 25.8264 17.6639C25.4281 17.5183 25.0508 17.2894 24.7154 16.9773C24.38 16.6652 24.1074 16.2699 23.9188 15.7914C23.7301 15.3129 23.6253 14.7511 23.6253 14.1062C23.6253 13.4612 23.7301 12.8786 23.9397 12.4209C24.1494 11.9632 24.4219 11.5887 24.7363 11.2766C25.0717 10.9853 25.4281 10.7565 25.8474 10.6108Z" />
<path fill-rule="evenodd" clip-rule="evenodd" d="M45.2591 7.03227C46.2234 7.03227 47.1038 7.21952 47.9214 7.57322C48.7389 7.92691 49.4517 8.42624 50.0177 9.05041C50.6047 9.67458 51.0658 10.4236 51.3803 11.2974C51.7157 12.1504 51.8834 13.1075 51.8834 14.127C51.8834 15.1464 51.7157 16.1035 51.3803 16.9773C51.0449 17.8512 50.5837 18.6002 49.9967 19.2451C49.4098 19.8901 48.697 20.3894 47.9004 20.7431C47.0829 21.0968 46.2024 21.2841 45.2381 21.2841C43.4982 21.2841 42.1356 20.7431 41.1503 19.6612V25.9029H37.4189V7.34436H40.8569V9.02961C41.339 8.38463 41.9469 7.90611 42.7016 7.55241C43.4563 7.19872 44.2948 7.03227 45.2591 7.03227ZM44.5883 10.382C44.1481 10.382 43.7078 10.4652 43.3095 10.6108C42.8903 10.7565 42.5339 10.9853 42.1985 11.2766C41.8841 11.5887 41.6115 11.9632 41.4019 12.4209C41.1923 12.8786 41.0875 13.4612 41.0875 14.1062C41.0875 14.7511 41.1923 15.3129 41.3809 15.7914C41.5696 16.2699 41.8421 16.6652 42.1775 16.9773C42.5129 17.2894 42.8903 17.5183 43.2886 17.6639C43.7078 17.8095 44.1271 17.8928 44.5673 17.8928C45.0495 17.8928 45.4897 17.8095 45.9299 17.6223C46.3492 17.4559 46.7265 17.2062 47.0409 16.8733C47.3554 16.5612 47.6279 16.1659 47.7956 15.7082C47.9843 15.2505 48.0681 14.7303 48.0681 14.1478C48.0681 13.586 47.9843 13.0659 47.7956 12.5874C47.6069 12.1296 47.3554 11.7135 47.0409 11.4014C46.7265 11.0685 46.3492 10.8189 45.9299 10.6524C45.5316 10.4652 45.0704 10.382 44.5883 10.382Z" />
<path d="M66.3479 7.34436H62.6165V20.9512H66.3479V7.34436Z" />
<path d="M90.5811 7.34436H94.3125V20.9512H90.5811V7.34436Z" />
<path d="M105.716 7.03227C106.513 7.03227 107.226 7.15711 107.876 7.42758C108.525 7.69805 109.07 8.07255 109.511 8.55108C109.951 9.02961 110.286 9.59136 110.538 10.2779C110.768 10.9437 110.894 11.6927 110.894 12.5249V20.9512H107.184V13.0035C107.184 12.2129 106.953 11.5887 106.492 11.0894C106.031 10.6108 105.402 10.3612 104.626 10.3612C103.851 10.3612 103.222 10.6108 102.74 11.0894C102.257 11.5679 102.027 12.2129 102.027 13.0035V20.9512H98.3164V7.34436H101.754V8.61349C102.236 8.13497 102.802 7.76047 103.473 7.46919C104.123 7.17791 104.878 7.03227 105.716 7.03227Z" />
<path fill-rule="evenodd" clip-rule="evenodd" d="M122.717 7.55241C121.963 7.19872 121.103 7.03227 120.097 7.03227C119.154 7.03227 118.294 7.19872 117.519 7.49C116.701 7.80208 116.009 8.2598 115.422 8.84236C114.835 9.42491 114.374 10.1323 114.039 10.9645C113.703 11.7759 113.536 12.7122 113.536 13.7317C113.536 14.7511 113.703 15.6666 114.039 16.4988C114.353 17.331 114.814 18.0384 115.401 18.621C115.988 19.2035 116.68 19.6612 117.498 19.9941C118.294 20.327 119.175 20.4935 120.118 20.4935C120.977 20.4935 121.774 20.3478 122.487 20.0774C123.199 19.8069 123.807 19.3908 124.311 18.8498V19.6196C124.311 20.7223 123.954 21.5337 123.262 22.0539C122.571 22.574 121.69 22.8445 120.642 22.8445C119.741 22.8445 118.944 22.678 118.252 22.366C117.56 22.0539 116.869 21.6378 116.177 21.0968L114.206 23.6767C114.982 24.3841 115.925 24.9667 117.036 25.466C118.147 25.9653 119.468 26.215 120.956 26.215C121.984 26.215 122.948 26.0693 123.807 25.7989C124.667 25.5284 125.401 25.0915 126.029 24.5297C126.637 23.9472 127.12 23.2398 127.476 22.4076C127.832 21.5545 128 20.5559 128 19.4116V7.32355H124.562V9.02961C124.08 8.38463 123.472 7.90611 122.717 7.55241ZM119.447 10.4236C119.866 10.2779 120.328 10.1947 120.81 10.1947C121.25 10.1947 121.669 10.2571 122.109 10.3612C122.508 10.486 122.885 10.6941 123.22 10.9853C123.556 11.2766 123.807 11.6303 124.017 12.088C124.227 12.5249 124.331 13.0659 124.331 13.6901C124.331 14.3142 124.227 14.876 124.017 15.3337C123.807 15.7914 123.535 16.1659 123.22 16.478C122.885 16.7693 122.529 16.9981 122.109 17.1438C121.711 17.3102 121.271 17.3726 120.831 17.3726C120.349 17.3726 119.887 17.2894 119.468 17.123C119.028 16.9565 118.651 16.7069 118.336 16.3948C118.022 16.0827 117.77 15.7082 117.581 15.2505C117.393 14.8135 117.309 14.2934 117.309 13.7317C117.309 13.1491 117.393 12.6498 117.581 12.2129C117.77 11.7759 118.022 11.4222 118.336 11.1102C118.63 10.8189 119.007 10.59 119.447 10.4236Z" />
</svg>
