<svg width="201" height="40" viewBox="0 0 201 40" fill="none" xmlns="http://www.w3.org/2000/svg">
<path fill-rule="evenodd" clip-rule="evenodd" d="M33.1868 29.8681L29.8681 26.5495L23.2307 33.1868L16.5934 26.5495L13.2747 29.8681L23.2307 39.8242L33.1868 29.8681ZM33.1868 3.31868L29.8681 0L23.2307 6.63736L16.5934 0L13.2747 3.31868L23.2307 13.2747L33.1868 3.31868ZM29.8681 13.2821L23.2307 19.9195L16.5934 13.2821L13.2747 16.6008L23.2307 26.5568L33.1868 16.6008L29.8681 13.2821ZM36.5054 6.63736L33.1867 9.95604L39.8241 16.5934L33.1867 23.2308L36.5054 26.5494L46.4615 16.5934L36.5054 6.63736ZM13.2747 23.2308L6.63736 16.5934L13.2747 9.95604L9.95604 6.63736L0 16.5934L9.95604 26.5494L13.2747 23.2308ZM176.793 26V22.1H180.753V26H176.793ZM182.633 14.2V11.4H186.593V14.2H182.633ZM182.713 26V15.18H186.513V26H182.713ZM194.153 26.26C190.693 26.26 188.193 23.72 188.193 20.64V20.6C188.193 17.52 190.713 14.94 194.193 14.94C197.653 14.94 200.153 17.48 200.153 20.56V20.6C200.153 23.68 197.633 26.26 194.153 26.26ZM194.193 23.04C195.573 23.04 196.453 21.94 196.453 20.64V20.6C196.453 19.28 195.493 18.16 194.153 18.16C192.773 18.16 191.893 19.26 191.893 20.56V20.6C191.893 21.92 192.853 23.04 194.193 23.04ZM61.24 26V12H66.64C71.64 12 74.54 14.88 74.54 18.92V18.96C74.54 23 71.6 26 66.56 26H61.24ZM65.1201 22.56H66.7001C69.0201 22.56 70.5601 21.28 70.5601 19.02V18.98C70.5601 16.74 69.0201 15.44 66.7001 15.44H65.1201V22.56ZM74.42 26L79.22 18.88L74.62 12H79.08L81.56 15.94L84.06 12H88.42L83.82 18.84L88.62 26H84.16L81.48 21.78L78.78 26H74.42Z" fill="#39D2DA"/>
<path fill-rule="evenodd" clip-rule="evenodd" d="M90.24 26.0002V12.0002H94.12V17.2402H99.1V12.0002H102.98V26.0002H99.1V20.6802H94.12V26.0002H90.24ZM105.46 26.0002V12.0002H116.72V15.3002H109.3V17.4202H116.02V20.4802H109.3V22.7002H116.82V26.0002H105.46ZM118.8 26.0002V12.0002H125.42C127.56 12.0002 129.04 12.5602 129.98 13.5202C130.8 14.3202 131.22 15.4002 131.22 16.7802V16.8202C131.22 18.9602 130.08 20.3802 128.34 21.1202L131.68 26.0002H127.2L124.38 21.7602H122.68V26.0002H118.8ZM122.68 18.7202H125.24C126.56 18.7202 127.32 18.0802 127.32 17.0602V17.0202C127.32 15.9202 126.52 15.3602 125.22 15.3602H122.68V18.7202ZM140.22 26.2802C135.9 26.2802 132.7 23.0602 132.7 19.0402V19.0002C132.7 14.9802 135.94 11.7202 140.26 11.7202C144.58 11.7202 147.78 14.9402 147.78 18.9602V19.0002C147.78 23.0202 144.54 26.2802 140.22 26.2802ZM140.26 22.7802C142.4 22.7802 143.82 21.0602 143.82 19.0402V19.0002C143.82 16.9802 142.36 15.2202 140.22 15.2202C138.1 15.2202 136.68 16.9402 136.68 18.9602V19.0002C136.68 21.0202 138.14 22.7802 140.26 22.7802ZM149.8 26.0002V12.0002H161.06V15.3002H153.64V17.4202H160.36V20.4802H153.64V22.7002H161.16V26.0002H149.8ZM168.64 26.2402C166.16 26.2402 163.8 25.4602 162.08 23.9202L164.24 21.3402C165.62 22.4402 167.16 23.0202 168.78 23.0202C169.82 23.0202 170.38 22.6602 170.38 22.0602V22.0202C170.38 21.4402 169.92 21.1202 168.02 20.6802C165.04 20.0002 162.74 19.1602 162.74 16.2802V16.2402C162.74 13.6402 164.8 11.7602 168.16 11.7602C170.54 11.7602 172.4 12.4002 173.92 13.6202L171.98 16.3602C170.7 15.4602 169.3 14.9802 168.06 14.9802C167.12 14.9802 166.66 15.3802 166.66 15.8802V15.9202C166.66 16.5602 167.14 16.8402 169.08 17.2802C172.3 17.9802 174.3 19.0202 174.3 21.6402V21.6802C174.3 24.5402 172.04 26.2402 168.64 26.2402Z" fill="white"/>
</svg>
